<svg xmlns="http://www.w3.org/2000/svg" width="50" height="50" viewBox="0 0 50 50">
  <g id="Logo" transform="translate(-1.25 -2.533)">
    <path id="Path_1" data-name="Path 1"
      d="M49.506,24.96H2.994a1.858,1.858,0,0,1,0-3.71H49.506a1.858,1.858,0,0,1,0,3.71Z" transform="translate(0 27.573)"
      fill="#16a249" />
    <path id="Path_2" data-name="Path 2"
      d="M44.926,20.951V50.678H2.949l.116-29.752a5.025,5.025,0,0,1,1.791-3.883L21.135,3.59a4.4,4.4,0,0,1,5.721,0l3.116,2.572,10.3,8.508,2.86,2.374A5.039,5.039,0,0,1,44.926,20.951Z"
      transform="translate(2.252 0)" fill="#16a249" opacity="0.4" />
    <path id="Path_3" data-name="Path 3"
      d="M17.64,17H12.988A3.6,3.6,0,0,0,9.5,20.71v8.656H21.128V20.71A3.6,3.6,0,0,0,17.64,17Z"
      transform="translate(10.936 21.312)" fill="#16a249" />
    <path id="Path_4" data-name="Path 4"
      d="M13.477,18.906H8.826A2.41,2.41,0,0,1,6.5,16.433v-3.71A2.41,2.41,0,0,1,8.826,10.25h4.651A2.41,2.41,0,0,1,15.8,12.723v3.71A2.41,2.41,0,0,1,13.477,18.906Z"
      transform="translate(6.959 11.369)" fill="#16a249" />
    <path id="Path_5" data-name="Path 5"
      d="M20.477,18.906H15.826A2.41,2.41,0,0,1,13.5,16.433v-3.71a2.41,2.41,0,0,1,2.326-2.473h4.651A2.41,2.41,0,0,1,22.8,12.723v3.71A2.41,2.41,0,0,1,20.477,18.906Z"
      transform="translate(16.238 11.369)" fill="#16a249" />
    <path id="Path_6" data-name="Path 6" d="M24.873,12.508,14.57,4H22.5a2.388,2.388,0,0,1,2.326,2.448Z"
      transform="translate(17.657 2.162)" fill="#16a249" />
  </g>
</svg>